<svg id="visual" viewBox="0 0 900 600" width="900" height="600" xmlns="http://www.w3.org/2000/svg" xmlns:xlink="http://www.w3.org/1999/xlink" version="1.1"><rect x="0" y="0" width="900" height="600" fill="#002233"></rect><path d="M0 178L21.5 176.7C43 175.3 86 172.7 128.8 172.8C171.7 173 214.3 176 257.2 163.8C300 151.7 343 124.3 385.8 130.7C428.7 137 471.3 177 514.2 182C557 187 600 157 642.8 144C685.7 131 728.3 135 771.2 145.3C814 155.7 857 172.3 878.5 180.7L900 189L900 0L878.5 0C857 0 814 0 771.2 0C728.3 0 685.7 0 642.8 0C600 0 557 0 514.2 0C471.3 0 428.7 0 385.8 0C343 0 300 0 257.2 0C214.3 0 171.7 0 128.8 0C86 0 43 0 21.5 0L0 0Z" fill="#44eff4" stroke-linecap="round" stroke-linejoin="miter"></path></svg>