<svg id="visual" viewBox="0 0 960 540" width="960" height="540" xmlns="http://www.w3.org/2000/svg" xmlns:xlink="http://www.w3.org/1999/xlink" version="1.1"><rect x="0" y="0" width="960" height="540" fill="#ffffff"></rect><path d="M0 112L22.8 106.8C45.7 101.7 91.3 91.3 137 85.5C182.7 79.7 228.3 78.3 274 83.2C319.7 88 365.3 99 411.2 99.7C457 100.3 503 90.7 548.8 99.2C594.7 107.7 640.3 134.3 686 145.7C731.7 157 777.3 153 823 146C868.7 139 914.3 129 937.2 124L960 119L960 0L937.2 0C914.3 0 868.7 0 823 0C777.3 0 731.7 0 686 0C640.3 0 594.7 0 548.8 0C503 0 457 0 411.2 0C365.3 0 319.7 0 274 0C228.3 0 182.7 0 137 0C91.3 0 45.7 0 22.8 0L0 0Z" fill="#b4ebeb" stroke-linecap="round" stroke-linejoin="miter"></path></svg>